<svg width="273" height="51" viewBox="0 0 273 51" fill="none" xmlns="http://www.w3.org/2000/svg">
<path d="M20.0056 0H14.6363L0 14.5L14.6046 29H20.0056L5.40093 14.5L20.0056 0Z" fill="#00962B"/>
<path d="M44.7891 0H39.4193L54.0245 14.5L39.4193 29H44.8205L59.4249 14.5L44.7891 0Z" fill="#00962B"/>
<path d="M42.4549 7.20893L42.3832 5.9956L41.1741 5.78388C41.0224 5.75797 40.2054 5.62842 39.028 5.62842C36.7977 5.62842 33.6194 6.08493 31.1442 8.25964C29.4551 9.74343 28.3751 11.8061 27.933 14.3924C27.5033 13.6595 27.0066 13.0323 26.4173 12.4785C24.6241 10.7941 22.1592 9.93985 19.0912 9.93985C18.3417 9.93985 17.5461 9.99142 16.7261 10.0931L15.4603 10.2495L15.3693 11.51C15.3549 11.7054 15.06 16.3364 18.3225 19.4017C20.1159 21.0863 22.5809 21.9406 25.6489 21.9406C26.0449 21.9406 26.4738 21.9221 26.9947 21.8824V25.3995H30.1015V19.8782C30.1349 19.8787 30.1775 19.8794 30.2044 19.8794C32.3483 19.8794 36.3807 19.4654 39.299 16.6925C41.6349 14.4731 42.6968 11.2825 42.4549 7.20844V7.20893ZM25.6446 18.8633C23.4113 18.8633 21.6722 18.2979 20.4756 17.1833C19.1597 15.9567 18.6936 14.2574 18.5362 13.0283C18.7283 13.0204 18.9168 13.0167 19.1019 13.0167C21.3307 13.0167 23.0678 13.5821 24.2647 14.6972C25.5801 15.9241 26.0464 17.623 26.2041 18.8519C26.0143 18.8596 25.8277 18.8633 25.6446 18.8633ZM37.1606 14.4605C35.2207 16.3127 32.3674 16.7135 30.8032 16.7848C30.8772 13.9986 31.681 11.9088 33.1929 10.5733C34.938 9.03226 37.3297 8.709 39.0292 8.709C39.15 8.709 39.2661 8.71048 39.3767 8.71344C39.305 11.1917 38.5595 13.1251 37.1606 14.4605Z" fill="#00962B"/>
<path d="M75.014 10.924C75.5832 10.3696 76.2599 9.94439 77.0436 9.64852C77.8274 9.3529 78.6952 9.2046 79.647 9.2046C80.6359 9.2046 81.5505 9.38498 82.3904 9.7455C83.2303 10.106 84.0045 10.6565 84.7139 11.3958L87.6252 8.73353C86.6735 7.64284 85.502 6.811 84.1121 6.23753C82.7215 5.66479 81.1587 5.37805 79.4231 5.37805C77.8556 5.37805 76.4181 5.62309 75.1121 6.11291C73.8057 6.60323 72.6671 7.30107 71.6969 8.20669C70.7265 9.11305 69.9755 10.1761 69.4435 11.3961C68.9114 12.6163 68.6456 13.957 68.6456 15.4173C68.6456 16.8777 68.9114 18.2183 69.4435 19.4386C69.9753 20.6588 70.7215 21.7221 71.683 22.6277C72.644 23.5338 73.7728 24.2319 75.07 24.7215C76.367 25.2111 77.7898 25.4566 79.3391 25.4566C80.739 25.4566 82.1428 25.2439 83.5522 24.8187C84.961 24.3936 86.1975 23.7836 87.2613 22.9882V15.1123H85.4385V15.0926H80.9549V18.5473H83.1183V20.8108C82.8179 20.966 82.5147 21.0961 82.2084 21.1995C81.359 21.4865 80.4869 21.6293 79.591 21.6293C78.6576 21.6293 77.8038 21.4818 77.0296 21.1859C76.2549 20.8903 75.5832 20.4604 75.014 19.8963C74.4446 19.3325 74.0065 18.6716 73.6983 17.9136C73.3905 17.1555 73.2365 16.3234 73.2365 15.4176C73.2365 14.4935 73.3907 13.652 73.6983 12.8939C74.0065 12.1359 74.4446 11.4795 75.014 10.9245V10.924Z" fill="black"/>
<path d="M104.478 18.8832C105.746 18.3288 106.726 17.529 107.417 16.4842C108.107 15.4399 108.453 14.1965 108.453 12.7542C108.453 10.554 107.697 8.8299 106.185 7.58227C104.673 6.33414 102.555 5.71033 99.8304 5.71033H91.4601V25.1231H95.9952V19.7153H99.9423C100.014 19.7153 100.082 19.7121 100.153 19.7111L103.917 25.1231H108.816L104.438 18.899C104.451 18.8936 104.465 18.8889 104.477 18.8835L104.478 18.8832ZM102.826 10.2586C103.516 10.8504 103.862 11.6825 103.862 12.7544C103.862 13.8081 103.516 14.636 102.826 15.2366C102.135 15.8375 101.09 16.1378 99.6904 16.1378H95.9952V9.3708H99.6904C101.09 9.3708 102.135 9.66691 102.826 10.2586Z" fill="black"/>
<path d="M129.182 8.23396C128.22 7.32835 127.091 6.62557 125.794 6.12637C124.497 5.62717 123.074 5.37744 121.525 5.37744C119.995 5.37744 118.576 5.62717 117.27 6.12637C115.964 6.62557 114.825 7.32835 113.855 8.23396C112.885 9.14032 112.134 10.2029 111.601 11.4231C111.069 12.6436 110.804 13.9746 110.804 15.4167C110.804 16.8588 111.069 18.1898 111.601 19.4101C112.133 20.6306 112.88 21.6939 113.841 22.5995C114.802 23.5053 115.941 24.2079 117.256 24.7071C118.572 25.2063 120.004 25.456 121.553 25.456C123.083 25.456 124.497 25.2063 125.795 24.7071C127.092 24.2079 128.22 23.5103 129.182 22.6133C130.143 21.7166 130.894 20.6538 131.435 19.4241C131.976 18.1948 132.247 16.8586 132.247 15.4167C132.247 13.9566 131.976 12.6204 131.435 11.4093C130.894 10.1987 130.143 9.14007 129.182 8.23396ZM127.194 17.9404C126.886 18.6987 126.452 19.3548 125.892 19.9093C125.332 20.4642 124.684 20.8894 123.947 21.185C123.209 21.4809 122.402 21.6285 121.525 21.6285C120.648 21.6285 119.836 21.4809 119.09 21.185C118.343 20.8894 117.694 20.464 117.144 19.9093C116.593 19.3548 116.164 18.694 115.856 17.9265C115.548 17.1594 115.395 16.3226 115.395 15.4167C115.395 14.4926 115.549 13.6511 115.856 12.8931C116.164 12.135 116.598 11.4786 117.158 10.9237C117.718 10.3692 118.366 9.94402 119.104 9.64816C119.841 9.35254 120.648 9.20423 121.525 9.20423C122.403 9.20423 123.214 9.35229 123.961 9.64816C124.707 9.94427 125.355 10.3692 125.906 10.9237C126.456 11.4786 126.886 12.1348 127.194 12.8931C127.502 13.6511 127.656 14.4926 127.656 15.4167C127.656 16.3408 127.502 17.1826 127.194 17.9404Z" fill="black"/>
<path d="M155.731 19.4575L151.255 5.71033H147.056L142.435 19.3558L138.014 5.71033H133.311L139.721 25.1231H144.592L149.034 11.9697L153.354 25.1231H158.225L164.636 5.71033H160.297L155.731 19.4575Z" fill="black"/>
<path d="M165 9.3708H171.271V25.1231H175.806V9.3708H182.077V5.71033H165V9.3708Z" fill="black"/>
<path d="M197.949 13.3646H189.047V5.71033H184.512V25.1231H189.047V17.164H197.949V25.1231H202.484V5.71033H197.949V13.3646Z" fill="black"/>
<path d="M219.588 5.71033H215.053V25.1231H229.414V21.4624H219.588V5.71033Z" fill="black"/>
<path d="M248.771 8.23396C247.81 7.32835 246.681 6.62557 245.384 6.12637C244.087 5.62717 242.664 5.37744 241.115 5.37744C239.584 5.37744 238.166 5.62717 236.86 6.12637C235.553 6.62557 234.415 7.32835 233.444 8.23396C232.474 9.14032 231.723 10.2029 231.191 11.4231C230.659 12.6436 230.393 13.9746 230.393 15.4167C230.393 16.8588 230.659 18.1898 231.191 19.4101C231.723 20.6306 232.469 21.6939 233.431 22.5995C234.392 23.5053 235.53 24.2079 236.846 24.7071C238.161 25.2063 239.593 25.456 241.143 25.456C242.673 25.456 244.087 25.2063 245.384 24.7071C246.681 24.2079 247.81 23.5103 248.771 22.6133C249.732 21.7166 250.483 20.6538 251.025 19.4241C251.566 18.1948 251.837 16.8586 251.837 15.4167C251.837 13.9566 251.566 12.6204 251.025 11.4093C250.483 10.1987 249.732 9.14007 248.771 8.23396ZM246.784 17.9404C246.476 18.6987 246.042 19.3548 245.482 19.9093C244.922 20.4642 244.274 20.8894 243.536 21.185C242.799 21.4809 241.992 21.6285 241.115 21.6285C240.238 21.6285 239.426 21.4809 238.68 21.185C237.933 20.8894 237.284 20.464 236.734 19.9093C236.183 19.3548 235.754 18.694 235.446 17.9265C235.138 17.1594 234.985 16.3226 234.985 15.4167C234.985 14.4926 235.138 13.6511 235.446 12.8931C235.754 12.135 236.188 11.4786 236.748 10.9237C237.308 10.3692 237.956 9.94402 238.694 9.64816C239.431 9.35254 240.238 9.20423 241.115 9.20423C241.993 9.20423 242.804 9.35229 243.551 9.64816C244.297 9.94427 244.946 10.3692 245.496 10.9237C246.046 11.4786 246.476 12.1348 246.784 12.8931C247.092 13.6511 247.246 14.4926 247.246 15.4167C247.246 16.3408 247.091 17.1826 246.784 17.9404Z" fill="black"/>
<path d="M271.007 15.092H266.524V18.5466H268.493V20.8104C268.193 20.9657 267.89 21.0957 267.583 21.1991C266.734 21.4861 265.862 21.629 264.966 21.629C264.032 21.629 263.179 21.4814 262.404 21.1855C261.63 20.8899 260.958 20.46 260.389 19.8959C259.819 19.3321 259.381 18.6713 259.073 17.9132C258.765 17.1552 258.611 16.3231 258.611 15.4172C258.611 14.4931 258.765 13.6516 259.073 12.8936C259.381 12.1355 259.819 11.4791 260.389 10.9242C260.958 10.3697 261.634 9.94451 262.418 9.64864C263.202 9.35302 264.07 9.20472 265.022 9.20472C266.011 9.20472 266.925 9.3851 267.765 9.74562C268.605 10.1061 269.379 10.6567 270.089 11.396L273 8.73365C272.048 7.64296 270.877 6.81112 269.487 6.23765C268.096 5.66491 266.533 5.37817 264.798 5.37817C263.23 5.37817 261.793 5.62321 260.487 6.11303C259.18 6.60335 258.042 7.30119 257.072 8.20681C256.101 9.11317 255.35 10.1762 254.818 11.3962C254.286 12.6165 254.02 13.9571 254.02 15.4175C254.02 16.8778 254.286 18.2185 254.818 19.4387C255.35 20.6589 256.096 21.7222 257.058 22.6278C258.019 23.534 259.148 24.232 260.445 24.7216C261.742 25.2112 263.165 25.4567 264.714 25.4567C266.114 25.4567 267.518 25.244 268.927 24.8188C270.336 24.3937 271.573 23.7837 272.636 22.9884V15.1125H271.008V15.0927L271.007 15.092Z" fill="black"/>
<path d="M49.4557 40.0833C49.0831 40.4405 48.8967 40.9567 48.8967 41.6322V43.74C48.8967 43.9186 48.8501 44.0544 48.7569 44.1476C48.6637 44.2408 48.5395 44.2873 48.3843 44.2873H48V45.7081H48.3843C48.5396 45.7081 48.6638 45.7529 48.7569 45.8421C48.85 45.9314 48.8967 46.0692 48.8967 46.2555V48.3633C48.8967 49.0309 49.0831 49.5453 49.4557 49.9063C49.8283 50.2673 50.3757 50.4478 51.0977 50.4478H51.7731V49.027H51.5635C51.284 49.027 51.0724 48.9531 50.9288 48.8058C50.785 48.6582 50.7133 48.4447 50.7133 48.1652V46.3019C50.7133 45.9605 50.6668 45.6926 50.5736 45.4984C50.4805 45.3045 50.3349 45.1627 50.1369 45.0733C50.0698 45.0431 49.9939 45.0175 49.9139 44.9939C49.994 44.9704 50.0698 44.9451 50.1369 44.9161C50.3349 44.8307 50.4805 44.691 50.5736 44.4968C50.6667 44.3029 50.7133 44.035 50.7133 43.6932V41.83C50.7133 41.5505 50.7851 41.3371 50.9288 41.1895C51.0724 41.0421 51.284 40.9683 51.5635 40.9683H51.7731V39.5475H51.0977C50.3756 39.5475 49.8283 39.7262 49.4557 40.0833Z" fill="#251714"/>
<path d="M63.7774 42.7937C64.0103 42.5608 64.2858 42.3823 64.6042 42.258C64.9224 42.1338 65.2718 42.0717 65.6522 42.0717C66.0559 42.0717 66.4285 42.1513 66.7701 42.3104C67.1117 42.4696 67.4223 42.7084 67.7018 43.0266L68.9129 41.9086C68.5246 41.4352 68.0454 41.076 67.4748 40.8314C66.9042 40.5868 66.2656 40.4646 65.5591 40.4646C64.9225 40.4646 64.3363 40.5675 63.8007 40.7732C63.265 40.979 62.7972 41.2722 62.3974 41.6524C61.9974 42.0329 61.687 42.4792 61.4657 42.9916C61.2445 43.5041 61.1338 44.0671 61.1338 44.6803C61.1338 45.2935 61.2445 45.8565 61.4657 46.3688C61.687 46.8813 61.9957 47.3278 62.3915 47.708C62.7875 48.0885 63.2551 48.3816 63.7948 48.5872C64.3343 48.7928 64.9186 48.8959 65.5474 48.8959C66.2616 48.8959 66.9041 48.7716 67.4747 48.5233C68.0453 48.2749 68.5246 47.9139 68.9128 47.4403L67.7017 46.3223C67.4222 46.6483 67.1117 46.8911 66.7701 47.0501C66.4284 47.2093 66.0557 47.2888 65.6521 47.2888C65.2717 47.2888 64.9223 47.2267 64.6041 47.1025C64.2857 46.9783 64.0102 46.7997 63.7773 46.5668C63.5444 46.3338 63.3639 46.0583 63.2357 45.7399C63.1076 45.4216 63.0436 45.0685 63.0436 44.6802C63.0436 44.2919 63.1077 43.9389 63.2357 43.6205C63.3638 43.3022 63.5444 43.0266 63.7773 42.7936L63.7774 42.7937Z" fill="#251714"/>
<path d="M102.201 41.111C101.525 40.7733 100.745 40.6044 99.8602 40.6044H96.157V48.7561H99.8602C100.745 48.7561 101.526 48.5872 102.201 48.2495C102.876 47.9119 103.404 47.4384 103.785 46.8288C104.165 46.2194 104.355 45.5032 104.355 44.6802C104.355 43.8496 104.165 43.1313 103.785 42.5258C103.404 41.9202 102.876 41.4485 102.201 41.1108V41.111ZM102.114 46.0195C101.892 46.4 101.582 46.6932 101.182 46.8987C100.782 47.1045 100.31 47.2073 99.767 47.2073H98.0435V42.1532H99.767C100.31 42.1532 100.782 42.2562 101.182 42.4618C101.582 42.6676 101.892 42.9587 102.114 43.3352C102.335 43.7119 102.446 44.1602 102.446 44.6803C102.446 45.1927 102.335 45.6392 102.114 46.0195Z" fill="#251714"/>
<path d="M115.544 45.3558H119.328V43.8883H115.544V42.1182H119.829V40.6044H113.669V48.7562H119.981V47.2423H115.544V45.3558Z" fill="#251714"/>
<path d="M85.4151 41.6642C85.0152 41.2838 84.5456 40.9887 84.006 40.7791C83.4663 40.5695 82.8744 40.4647 82.23 40.4647C81.5934 40.4647 81.0032 40.5695 80.4599 40.7791C79.9165 40.9887 79.4428 41.2838 79.0392 41.6642C78.6353 42.0446 78.323 42.491 78.1017 43.0034C77.8805 43.5158 77.7698 44.0748 77.7698 44.6804C77.7698 45.286 77.8805 45.8449 78.1017 46.3573C78.323 46.8697 78.6333 47.3162 79.0334 47.6965C79.4331 48.077 79.9067 48.372 80.4542 48.5816C81.0014 48.7911 81.5972 48.896 82.2418 48.896C82.8784 48.896 83.4663 48.7911 84.006 48.5816C84.5455 48.372 85.0152 48.079 85.4151 47.7024C85.815 47.3259 86.1273 46.8796 86.3526 46.3632C86.5777 45.8469 86.6903 45.2859 86.6903 44.6804C86.6903 44.0672 86.5777 43.5062 86.3526 42.9976C86.1273 42.4892 85.8149 42.0446 85.4151 41.6642ZM84.5883 45.74C84.4602 46.0584 84.2796 46.3339 84.0467 46.5669C83.8137 46.7997 83.544 46.9785 83.2373 47.1026C82.9306 47.2268 82.5948 47.2889 82.23 47.2889C81.8653 47.2889 81.5273 47.2268 81.2169 47.1026C80.9063 46.9785 80.6364 46.7998 80.4075 46.5669C80.1784 46.3339 79.9999 46.0564 79.8718 45.7342C79.7437 45.4122 79.6797 45.0608 79.6797 44.6803C79.6797 44.2922 79.7438 43.939 79.8718 43.6206C79.9999 43.3023 80.1804 43.0267 80.4134 42.7937C80.6462 42.5609 80.916 42.3823 81.2227 42.258C81.5293 42.1339 81.8651 42.0717 82.23 42.0717C82.595 42.0717 82.9326 42.134 83.2432 42.258C83.5535 42.3822 83.8235 42.5608 84.0526 42.7937C84.2815 43.0266 84.4602 43.3023 84.5883 43.6206C84.7164 43.939 84.7804 44.2922 84.7804 44.6803C84.7804 45.0684 84.7163 45.4217 84.5883 45.74Z" fill="#251714"/>
<path d="M85.4467 37.6166V37H84.8301C83.5148 37 82.4486 38.0662 82.4486 39.3815V39.9981H83.0653C84.3805 39.9981 85.4468 38.9319 85.4468 37.6166H85.4467Z" fill="#00962B"/>
<path d="M81.6284 39.9981H82.1027V39.5238C82.1027 38.512 81.2825 37.6919 80.2708 37.6919H79.7965V38.1662C79.7965 39.178 80.6166 39.9981 81.6284 39.9981Z" fill="#00962B"/>
<path d="M152.079 42.7649C152.315 42.5319 152.597 42.3535 152.923 42.2293C153.249 42.1051 153.61 42.0429 154.006 42.0429C154.417 42.0429 154.798 42.1186 155.147 42.2699C155.496 42.4213 155.819 42.6524 156.114 42.9628L157.325 41.8448C156.929 41.3869 156.442 41.0376 155.863 40.7968C155.285 40.5562 154.635 40.4358 153.913 40.4358C153.261 40.4358 152.663 40.5388 152.119 40.7444C151.576 40.9503 151.102 41.2433 150.699 41.6237C150.295 42.0042 149.982 42.4505 149.761 42.9629C149.54 43.4753 149.429 44.0383 149.429 44.6515C149.429 45.2647 149.54 45.8278 149.761 46.3401C149.982 46.8526 150.293 47.2991 150.693 47.6793C151.093 48.0598 151.562 48.3529 152.102 48.5586C152.641 48.7642 153.233 48.8671 153.878 48.8671C154.46 48.8671 155.044 48.7778 155.631 48.5994C156.217 48.4208 156.731 48.1646 157.174 47.8307V44.5234H154.696V46.0671L155.45 46.0694V46.9164C155.325 46.9815 155.199 47.0362 155.072 47.0795C154.718 47.2 154.355 47.2601 153.983 47.2601C153.594 47.2601 153.239 47.198 152.917 47.0737C152.595 46.9495 152.315 46.7691 152.079 46.5322C151.842 46.2954 151.659 46.0179 151.531 45.6995C151.403 45.3813 151.339 45.0318 151.339 44.6514C151.339 44.2633 151.403 43.9101 151.531 43.5917C151.659 43.2735 151.842 42.9978 152.079 42.7649Z" fill="#251714"/>
<path d="M171.48 46.1072C172.008 45.8742 172.416 45.5385 172.703 45.0999C172.99 44.6613 173.134 44.1391 173.134 43.5335C173.134 42.6096 172.82 41.8857 172.191 41.3616C171.562 40.8377 170.681 40.5756 169.547 40.5756H166.065V48.7273H167.952V46.4565H169.594C169.623 46.4565 169.652 46.4551 169.682 46.4547L171.247 48.7273H173.285L171.464 46.1137C171.469 46.1114 171.475 46.1094 171.48 46.1071V46.1072ZM167.952 42.1127H169.489C170.071 42.1127 170.506 42.2369 170.793 42.4853C171.08 42.7339 171.224 43.0832 171.224 43.5334C171.224 43.9759 171.08 44.3235 170.793 44.5757C170.506 44.8281 170.071 44.9542 169.489 44.9542H167.952V42.1127Z" fill="#251714"/>
<path d="M209.203 46.348L207.583 40.5756H206.063L204.391 46.3056L202.79 40.5756H201.088L203.408 48.7273H205.171L206.779 43.2039L208.343 48.7273H210.106L212.426 40.5756H210.855L209.203 46.348Z" fill="#251714"/>
<path d="M224.616 44.1638C224.46 44.1638 224.336 44.1173 224.243 44.024C224.15 43.9309 224.103 43.7951 224.103 43.6164V41.5086C224.103 40.8331 223.919 40.317 223.55 39.9598C223.181 39.6028 222.632 39.4241 221.902 39.4241H221.227V40.8448H221.436C221.716 40.8448 221.927 40.9187 222.071 41.0662C222.215 41.2138 222.287 41.4271 222.287 41.7067V43.5699C222.287 43.9116 222.335 44.1794 222.432 44.3734C222.529 44.5677 222.675 44.7073 222.869 44.7928C222.934 44.8213 223.006 44.8471 223.084 44.8704C223.006 44.8938 222.934 44.9201 222.869 44.9499C222.675 45.0392 222.529 45.181 222.432 45.3749C222.335 45.5692 222.287 45.837 222.287 46.1785V48.0417C222.287 48.3212 222.215 48.5347 222.071 48.6823C221.927 48.8297 221.716 48.9035 221.436 48.9035H221.227V50.3243H221.902C222.632 50.3243 223.181 50.1438 223.55 49.7828C223.919 49.4218 224.103 48.9074 224.103 48.2397V46.1319C224.103 45.9456 224.15 45.8078 224.243 45.7185C224.336 45.6294 224.46 45.5846 224.616 45.5846H225V44.1638H224.616Z" fill="#251714"/>
<path d="M190.347 41.6353C189.947 41.2549 189.477 40.9598 188.937 40.7502C188.398 40.5406 187.806 40.4358 187.161 40.4358C186.525 40.4358 185.935 40.5406 185.391 40.7502C184.848 40.9599 184.374 41.255 183.971 41.6353C183.567 42.0157 183.254 42.462 183.033 42.9745C182.812 43.4868 182.701 44.0458 182.701 44.6514C182.701 45.2569 182.812 45.816 183.033 46.3284C183.254 46.8408 183.565 47.2873 183.965 47.6676C184.365 48.048 184.838 48.3431 185.386 48.5526C185.933 48.7622 186.529 48.867 187.173 48.867C187.81 48.867 188.398 48.7622 188.937 48.5526C189.477 48.343 189.947 48.05 190.347 47.6734C190.746 47.2969 191.059 46.8506 191.284 46.3341C191.509 45.8179 191.622 45.2569 191.622 44.6514C191.622 44.0383 191.509 43.4773 191.284 42.9687C191.059 42.4602 190.746 42.0158 190.347 41.6353ZM189.52 45.7111C189.392 46.0296 189.211 46.305 188.978 46.5379C188.745 46.7708 188.475 46.9495 188.169 47.0736C187.862 47.1978 187.526 47.26 187.161 47.26C186.797 47.26 186.459 47.1979 186.148 47.0736C185.838 46.9494 185.568 46.7708 185.339 46.5379C185.11 46.305 184.931 46.0275 184.803 45.7052C184.675 45.3832 184.611 45.0318 184.611 44.6513C184.611 44.2632 184.675 43.91 184.803 43.5916C184.931 43.2734 185.112 42.9977 185.345 42.7648C185.578 42.5319 185.847 42.3534 186.154 42.2292C186.461 42.105 186.797 42.0428 187.161 42.0428C187.526 42.0428 187.864 42.1049 188.175 42.2292C188.485 42.3534 188.755 42.5319 188.984 42.7648C189.213 42.9977 189.392 43.2734 189.52 43.5916C189.648 43.91 189.712 44.2633 189.712 44.6513C189.712 45.0393 189.648 45.3928 189.52 45.711V45.7111Z" fill="#251714"/>
<path d="M190.372 37.6166V37H189.756C188.441 37 187.374 38.0662 187.374 39.3815V39.9981H187.991C189.306 39.9981 190.372 38.9319 190.372 37.6166H190.372Z" fill="#00962B"/>
<path d="M186.554 39.9981H187.028V39.5238C187.028 38.512 186.208 37.6919 185.196 37.6919H184.722V38.1662C184.722 39.178 185.542 39.9981 186.554 39.9981Z" fill="#00962B"/>
<path d="M138 41.75L132 47.75" stroke="black"/>
<path d="M132 41.75L138 47.75" stroke="black"/>
</svg>
