<svg width="242" height="135" viewBox="0 0 242 135" fill="none" xmlns="http://www.w3.org/2000/svg">
<path d="M173.696 44.2413V13.5728H180.794V44.2413H173.696ZM152.666 44.2413V13.5728H159.764V44.2413H152.666ZM159.238 31.6672V25.6649H174.222V31.6672H159.238Z" fill="black"/>
<path d="M135.639 44.7669C133.273 44.7669 131.068 44.3872 129.024 43.6278C127.008 42.8392 125.256 41.7293 123.766 40.2981C122.276 38.8669 121.108 37.1874 120.261 35.2597C119.443 33.3319 119.034 31.2144 119.034 28.9069C119.034 26.5995 119.443 24.4819 120.261 22.5541C121.108 20.6264 122.276 18.9469 123.766 17.5157C125.285 16.0845 127.052 14.9892 129.067 14.2298C131.083 13.4412 133.288 13.0469 135.683 13.0469C138.341 13.0469 140.736 13.5142 142.868 14.4489C145.03 15.3543 146.841 16.6979 148.301 18.4796L143.744 22.6856C142.693 21.488 141.525 20.5972 140.239 20.013C138.954 19.3997 137.552 19.093 136.033 19.093C134.602 19.093 133.288 19.3266 132.09 19.794C130.893 20.2613 129.856 20.9331 128.98 21.8093C128.103 22.6856 127.417 23.7225 126.921 24.92C126.453 26.1175 126.22 27.4465 126.22 28.9069C126.22 30.3673 126.453 31.6963 126.921 32.8938C127.417 34.0914 128.103 35.1282 128.98 36.0045C129.856 36.8807 130.893 37.5525 132.09 38.0199C133.288 38.4872 134.602 38.7209 136.033 38.7209C137.552 38.7209 138.954 38.4288 140.239 37.8446C141.525 37.2312 142.693 36.3112 143.744 35.0844L148.301 39.2904C146.841 41.0721 145.03 42.4303 142.868 43.365C140.736 44.2996 138.326 44.7669 135.639 44.7669Z" fill="black"/>
<path d="M91.5686 44.2413V13.5728H114.745V19.2683H98.6223V38.5457H115.315V44.2413H91.5686ZM98.0966 31.4481V25.9278H112.861V31.4481H98.0966Z" fill="black"/>
<path d="M70.8382 44.2413V19.356H61.0242V13.5728H87.7497V19.356H77.9358V44.2413H70.8382Z" fill="black"/>
<path d="M146.301 2.31582V0H143.986C139.046 0 135.042 4.00444 135.042 8.94417V11.26H137.358C142.297 11.26 146.302 7.25555 146.302 2.31582H146.301Z" fill="#00962B"/>
<path d="M131.961 11.2598H133.743V9.47845C133.743 5.67869 130.662 2.59851 126.863 2.59851H125.081V4.37988C125.081 8.17965 128.161 11.2598 131.961 11.2598Z" fill="#00962B"/>
<path d="M178.372 96.4296V65.761H184.243L202.338 87.8424H199.49V65.761H206.5V96.4296H200.673L182.534 74.3482H185.382V96.4296H178.372Z" fill="black"/>
<path d="M163.996 96.4296V65.761H171.094V96.4296H163.996Z" fill="black"/>
<path d="M33.501 96.4296V65.761H40.5985V90.6463H55.9767V96.4296H33.501Z" fill="black"/>
<path d="M0 96.4296V65.761H14.9838C18.8393 65.761 21.7309 66.4912 23.6586 67.9516C25.6156 69.412 26.594 71.3397 26.594 73.7348C26.594 75.3413 26.1997 76.7433 25.4111 77.9408C24.6225 79.1091 23.5418 80.0146 22.169 80.6572C20.7962 81.2997 19.219 81.621 17.4373 81.621L18.2697 79.8247C20.1974 79.8247 21.9061 80.146 23.3957 80.7886C24.8854 81.402 26.0391 82.322 26.8569 83.5488C27.7039 84.7755 28.1275 86.2797 28.1275 88.0614C28.1275 90.6902 27.0906 92.7493 25.0168 94.2389C22.943 95.6994 19.8908 96.4296 15.86 96.4296H0ZM7.05378 91.0845H15.3343C17.1744 91.0845 18.5618 90.7924 19.4964 90.2082C20.4603 89.5948 20.9423 88.631 20.9423 87.3166C20.9423 86.0315 20.4603 85.0822 19.4964 84.4688C18.5618 83.8262 17.1744 83.5049 15.3343 83.5049H6.52803V78.3351H14.1076C15.8308 78.3351 17.1452 78.043 18.0506 77.4589C18.9853 76.8455 19.4526 75.9254 19.4526 74.6987C19.4526 73.5012 18.9853 72.6103 18.0506 72.0261C17.1452 71.4128 15.8308 71.1061 14.1076 71.1061H7.05378V91.0845Z" fill="black"/>
<path d="M86.2601 69.7059C84.758 68.2774 82.9944 67.1691 80.9678 66.382C78.9409 65.5945 76.7178 65.2012 74.2979 65.2012C71.9068 65.2012 69.6904 65.5945 67.65 66.382C65.6089 67.1691 63.83 68.2774 62.3141 69.7059C60.7974 71.1348 59.6244 72.811 58.7933 74.7356C57.9625 76.6602 57.5467 78.7592 57.5467 81.0338C57.5467 83.3084 57.9625 85.4075 58.7933 87.3317C59.6244 89.2563 60.79 90.9332 62.2924 92.3613C63.7938 93.7902 65.5723 94.8982 67.6283 95.6853C69.6837 96.4724 71.9213 96.8661 74.342 96.8661C76.7328 96.8661 78.9409 96.4724 80.9678 95.6853C82.9941 94.8982 84.758 93.7976 86.2601 92.3833C87.7618 90.9694 88.9348 89.2932 89.7809 87.3537C90.6263 85.4149 91.0491 83.3081 91.0491 81.0338C91.0491 78.7308 90.6263 76.6239 89.7809 74.7139C88.9348 72.8046 87.7614 71.1348 86.2601 69.7059ZM83.1547 85.0134C82.6735 86.2091 81.9955 87.2439 81.1206 88.1188C80.2458 88.9933 79.2327 89.6646 78.081 90.1308C76.9289 90.5974 75.6678 90.8305 74.2979 90.8305C72.928 90.8305 71.6587 90.5974 70.4928 90.1308C69.3266 89.6646 68.3127 88.9937 67.4531 88.1188C66.5925 87.2439 65.9223 86.2017 65.4412 84.9917C64.96 83.7821 64.7198 82.4623 64.7198 81.0335C64.7198 79.5758 64.9604 78.2493 65.4412 77.0535C65.9223 75.8581 66.6003 74.823 67.4752 73.9481C68.3497 73.0736 69.3628 72.4031 70.5149 71.9361C71.6662 71.4699 72.9273 71.2364 74.2979 71.2364C75.6685 71.2364 76.9364 71.4703 78.103 71.9361C79.2686 72.4027 80.2824 73.0732 81.1427 73.9481C82.0026 74.8226 82.6735 75.8581 83.1547 77.0535C83.6358 78.2493 83.876 79.5758 83.876 81.0335C83.876 82.4911 83.6355 83.818 83.1547 85.0134Z" fill="black"/>
<path d="M86.3786 54.5042V52.1884H84.0627C79.123 52.1884 75.1189 56.1928 75.1189 61.1325V63.4483H77.4347C82.3745 63.4483 86.3789 59.4439 86.3789 54.5042H86.3786Z" fill="#00962B"/>
<path d="M72.0382 63.4484H73.8196V61.667C73.8196 57.8673 70.7394 54.7871 66.9397 54.7871H65.1583V56.5685C65.1583 60.3682 68.2385 63.4484 72.0382 63.4484Z" fill="#00962B"/>
<path d="M121.054 80.5811H114.037V86.0387H117.119V89.6151C116.649 89.8603 116.174 90.0657 115.695 90.2291C114.365 90.6824 113 90.9081 111.598 90.9081C110.137 90.9081 108.801 90.675 107.59 90.2076C106.377 89.7406 105.325 89.0615 104.435 88.1703C103.544 87.2796 102.858 86.2356 102.376 85.038C101.894 83.8405 101.653 82.5259 101.653 81.0948C101.653 79.6349 101.894 78.3056 102.376 77.108C102.858 75.9104 103.544 74.8735 104.435 73.9968C105.325 73.1208 106.384 72.4491 107.611 71.9817C108.838 71.5147 110.196 71.2804 111.686 71.2804C113.234 71.2804 114.665 71.5654 115.98 72.1349C117.294 72.7045 118.505 73.5742 119.616 74.7421L124.172 70.5362C122.682 68.8131 120.849 67.499 118.674 66.593C116.498 65.6882 114.051 65.2352 111.335 65.2352C108.882 65.2352 106.632 65.6223 104.588 66.3962C102.544 67.1708 100.762 68.2732 99.2432 69.7039C97.724 71.1358 96.5487 72.8152 95.7164 74.7425C94.8837 76.6702 94.4677 78.7882 94.4677 81.0952C94.4677 83.4023 94.8837 85.5203 95.7164 87.448C96.5487 89.3757 97.7162 91.0555 99.2214 92.4862C100.725 93.9177 102.492 95.0205 104.523 95.7939C106.553 96.5674 108.779 96.9552 111.204 96.9552C113.395 96.9552 115.593 96.6192 117.798 95.9475C120.003 95.2758 121.939 94.3122 123.603 93.0557V80.6134H121.054V80.5822L121.054 80.5811Z" fill="black"/>
<path d="M154.854 80.5811H147.837V86.0387H150.919V89.6151C150.449 89.8603 149.975 90.0657 149.495 90.2291C148.165 90.6824 146.801 90.9081 145.399 90.9081C143.938 90.9081 142.602 90.675 141.39 90.2076C140.177 89.7406 139.126 89.0615 138.236 88.1703C137.344 87.2796 136.658 86.2356 136.176 85.038C135.694 83.8405 135.454 82.5259 135.454 81.0948C135.454 79.6349 135.694 78.3056 136.176 77.108C136.658 75.9104 137.344 74.8735 138.236 73.9968C139.126 73.1208 140.185 72.4491 141.412 71.9817C142.638 71.5147 143.997 71.2804 145.486 71.2804C147.034 71.2804 148.466 71.5654 149.78 72.1349C151.094 72.7045 152.306 73.5742 153.417 74.7421L157.973 70.5362C156.483 68.8131 154.65 67.499 152.474 66.593C150.298 65.6882 147.852 65.2352 145.136 65.2352C142.682 65.2352 140.433 65.6223 138.389 66.3962C136.344 67.1708 134.562 68.2732 133.044 69.7039C131.524 71.1358 130.349 72.8152 129.517 74.7425C128.684 76.6702 128.268 78.7882 128.268 81.0952C128.268 83.4023 128.684 85.5203 129.517 87.448C130.349 89.3757 131.517 91.0555 133.022 92.4862C134.526 93.9177 136.293 95.0205 138.323 95.7939C140.353 96.5674 142.58 96.9552 145.005 96.9552C147.195 96.9552 149.393 96.6192 151.599 95.9475C153.804 95.2758 155.739 94.3122 157.404 93.0557V80.6134H154.855V80.5822L154.854 80.5811Z" fill="black"/>
<path d="M238.414 80.5811H231.397V86.0387H234.479V89.6151C234.009 89.8603 233.534 90.0657 233.055 90.2291C231.725 90.6824 230.36 90.9081 228.959 90.9081C227.497 90.9081 226.161 90.675 224.95 90.2076C223.737 89.7406 222.686 89.0615 221.795 88.1703C220.904 87.2796 220.218 86.2356 219.736 85.038C219.254 83.8405 219.013 82.5259 219.013 81.0948C219.013 79.6349 219.254 78.3056 219.736 77.108C220.218 75.9104 220.904 74.8735 221.795 73.9968C222.686 73.1208 223.745 72.4491 224.972 71.9817C226.198 71.5147 227.557 71.2804 229.046 71.2804C230.594 71.2804 232.025 71.5654 233.34 72.1349C234.654 72.7045 235.866 73.5742 236.976 74.7421L241.533 70.5362C240.043 68.8131 238.21 67.499 236.034 66.593C233.858 65.6882 231.412 65.2352 228.695 65.2352C226.242 65.2352 223.992 65.6223 221.949 66.3962C219.904 67.1708 218.122 68.2732 216.604 69.7039C215.084 71.1358 213.909 72.8152 213.077 74.7425C212.244 76.6702 211.828 78.7882 211.828 81.0952C211.828 83.4023 212.244 85.5203 213.077 87.448C213.909 89.3757 215.077 91.0555 216.582 92.4862C218.086 93.9177 219.853 95.0205 221.883 95.7939C223.913 96.5674 226.14 96.9552 228.564 96.9552C230.755 96.9552 232.953 96.6192 235.159 95.9475C237.364 95.2758 239.299 94.3122 240.964 93.0557V80.6134H238.414V80.5822L238.414 80.5811Z" fill="black"/>
<path d="M20.6722 122.542C20.2442 122.952 20.03 123.545 20.03 124.321V126.742C20.03 126.948 19.9766 127.104 19.8695 127.211C19.7625 127.318 19.6197 127.371 19.4415 127.371H19V129.003H19.4415C19.6199 129.003 19.7626 129.055 19.8695 129.157C19.9765 129.26 20.03 129.418 20.03 129.632V132.053C20.03 132.82 20.2442 133.411 20.6722 133.826C21.1002 134.24 21.729 134.448 22.5584 134.448H23.3342V132.816H23.0935C22.7724 132.816 22.5294 132.731 22.3644 132.562C22.1992 132.392 22.1169 132.147 22.1169 131.826V129.685C22.1169 129.293 22.0634 128.985 21.9563 128.762C21.8494 128.54 21.6821 128.377 21.4547 128.274C21.3777 128.239 21.2904 128.21 21.1986 128.183C21.2905 128.156 21.3777 128.127 21.4547 128.093C21.6821 127.995 21.8494 127.835 21.9563 127.612C22.0633 127.389 22.1169 127.081 22.1169 126.689V124.548C22.1169 124.227 22.1993 123.982 22.3644 123.813C22.5294 123.643 22.7724 123.558 23.0935 123.558H23.3342V121.926H22.5584C21.7289 121.926 21.1002 122.132 20.6722 122.542Z" fill="#251714"/>
<path d="M37.1239 125.655C37.3914 125.388 37.7079 125.183 38.0736 125.04C38.4391 124.897 38.8405 124.826 39.2775 124.826C39.7412 124.826 40.1692 124.917 40.5617 125.1C40.9541 125.283 41.3109 125.557 41.632 125.923L43.0232 124.639C42.5771 124.095 42.0266 123.682 41.3711 123.401C40.7157 123.12 39.9821 122.98 39.1706 122.98C38.4392 122.98 37.7659 123.098 37.1506 123.334C36.5352 123.571 35.9979 123.908 35.5386 124.344C35.0791 124.781 34.7226 125.294 34.4684 125.883C34.2143 126.471 34.0871 127.118 34.0871 127.823C34.0871 128.527 34.2143 129.174 34.4684 129.762C34.7226 130.351 35.0771 130.864 35.5319 131.301C35.9868 131.738 36.5239 132.074 37.1439 132.31C37.7636 132.547 38.4348 132.665 39.1571 132.665C39.9775 132.665 40.7156 132.522 41.371 132.237C42.0265 131.952 42.5771 131.537 43.0231 130.993L41.6319 129.709C41.3108 130.083 40.9541 130.362 40.5616 130.545C40.1691 130.728 39.741 130.819 39.2774 130.819C38.8404 130.819 38.439 130.748 38.0735 130.605C37.7078 130.462 37.3912 130.257 37.1238 129.99C36.8562 129.722 36.6489 129.405 36.5016 129.04C36.3545 128.674 36.281 128.268 36.281 127.822C36.281 127.376 36.3546 126.971 36.5016 126.605C36.6488 126.239 36.8562 125.923 37.1238 125.655L37.1239 125.655Z" fill="#251714"/>
<path d="M81.2619 123.722C80.486 123.334 79.5897 123.14 78.573 123.14H74.3191V132.504H78.573C79.5897 132.504 80.4861 132.31 81.2619 131.923C82.0377 131.535 82.6442 130.991 83.0812 130.29C83.5181 129.591 83.7367 128.768 83.7367 127.822C83.7367 126.868 83.518 126.043 83.0812 125.348C82.6441 124.652 82.0377 124.11 81.2619 123.722V123.722ZM81.1616 129.361C80.9074 129.798 80.5506 130.135 80.0913 130.371C79.6319 130.607 79.0901 130.725 78.466 130.725H76.4861V124.92H78.466C79.0901 124.92 79.632 125.038 80.0913 125.274C80.5506 125.51 80.9074 125.845 81.1616 126.277C81.4157 126.71 81.5429 127.225 81.5429 127.822C81.5429 128.411 81.4157 128.924 81.1616 129.361Z" fill="#251714"/>
<path d="M96.5889 128.598H100.937V126.913H96.5889V124.879H101.512V123.14H94.4352V132.505H101.686V130.765H96.5889V128.598Z" fill="#251714"/>
<path d="M61.9796 124.358C61.5202 123.921 60.9808 123.582 60.3609 123.341C59.741 123.1 59.061 122.98 58.3208 122.98C57.5895 122.98 56.9116 123.1 56.2875 123.341C55.6632 123.582 55.1191 123.921 54.6554 124.358C54.1915 124.795 53.8327 125.308 53.5785 125.896C53.3244 126.485 53.1972 127.127 53.1972 127.823C53.1972 128.518 53.3244 129.16 53.5785 129.749C53.8327 130.338 54.1892 130.85 54.6488 131.287C55.108 131.724 55.652 132.063 56.2808 132.304C56.9095 132.545 57.5939 132.665 58.3343 132.665C59.0656 132.665 59.741 132.545 60.3609 132.304C60.9807 132.063 61.5202 131.727 61.9796 131.294C62.439 130.862 62.7977 130.349 63.0565 129.756C63.3151 129.163 63.4444 128.518 63.4444 127.823C63.4444 127.118 63.3151 126.474 63.0565 125.89C62.7977 125.306 62.4388 124.795 61.9796 124.358ZM61.0298 129.04C60.8826 129.406 60.6753 129.722 60.4077 129.99C60.1401 130.257 59.8302 130.462 59.4779 130.605C59.1256 130.748 58.7398 130.819 58.3208 130.819C57.9018 130.819 57.5136 130.748 57.157 130.605C56.8003 130.462 56.4902 130.257 56.2273 129.99C55.964 129.722 55.759 129.403 55.6119 129.033C55.4647 128.663 55.3912 128.26 55.3912 127.823C55.3912 127.377 55.4648 126.971 55.6119 126.605C55.759 126.24 55.9664 125.923 56.234 125.655C56.5015 125.388 56.8114 125.183 57.1637 125.04C57.5159 124.897 57.9016 124.826 58.3208 124.826C58.74 124.826 59.1278 124.897 59.4847 125.04C59.8412 125.183 60.1513 125.388 60.4144 125.655C60.6774 125.923 60.8826 126.24 61.0298 126.605C61.177 126.971 61.2504 127.377 61.2504 127.823C61.2504 128.268 61.1769 128.674 61.0298 129.04Z" fill="#251714"/>
<path d="M62.0159 119.708V119H61.3075C59.7967 119 58.5719 120.225 58.5719 121.736V122.444H59.2803C60.7912 122.444 62.016 121.219 62.016 119.708H62.0159Z" fill="#00962B"/>
<path d="M57.6297 122.444H58.1746V121.899C58.1746 120.737 57.2324 119.795 56.0702 119.795H55.5254V120.34C55.5254 121.502 56.4675 122.444 57.6297 122.444Z" fill="#00962B"/>
<path d="M138.558 125.622C138.829 125.355 139.153 125.15 139.527 125.007C139.902 124.864 140.317 124.793 140.771 124.793C141.244 124.793 141.681 124.88 142.082 125.054C142.484 125.228 142.854 125.493 143.193 125.85L144.584 124.565C144.129 124.039 143.569 123.638 142.905 123.361C142.241 123.085 141.494 122.947 140.664 122.947C139.915 122.947 139.228 123.065 138.604 123.301C137.98 123.538 137.436 123.874 136.972 124.311C136.508 124.748 136.15 125.261 135.895 125.85C135.641 126.438 135.514 127.085 135.514 127.789C135.514 128.494 135.641 129.141 135.895 129.729C136.15 130.318 136.506 130.831 136.966 131.268C137.425 131.705 137.964 132.041 138.584 132.278C139.204 132.514 139.884 132.632 140.624 132.632C141.293 132.632 141.964 132.529 142.638 132.324C143.311 132.119 143.902 131.825 144.41 131.441V127.642H141.564V129.416L142.43 129.418V130.391C142.287 130.466 142.142 130.529 141.996 130.579C141.59 130.717 141.173 130.786 140.745 130.786C140.299 130.786 139.891 130.715 139.521 130.572C139.151 130.429 138.83 130.222 138.558 129.95C138.285 129.678 138.076 129.359 137.929 128.993C137.782 128.628 137.708 128.226 137.708 127.789C137.708 127.343 137.782 126.938 137.929 126.572C138.076 126.206 138.285 125.89 138.558 125.622Z" fill="#251714"/>
<path d="M160.845 129.462C161.451 129.194 161.919 128.808 162.249 128.304C162.579 127.801 162.744 127.201 162.744 126.505C162.744 125.444 162.383 124.612 161.661 124.01C160.938 123.408 159.926 123.107 158.624 123.107H154.624V132.471H156.791V129.863H158.677C158.712 129.863 158.745 129.861 158.778 129.861L160.577 132.471H162.918L160.826 129.469C160.832 129.466 160.839 129.464 160.845 129.461V129.462ZM156.791 124.873H158.557C159.226 124.873 159.725 125.016 160.055 125.301C160.385 125.587 160.55 125.988 160.55 126.505C160.55 127.013 160.385 127.413 160.055 127.702C159.725 127.992 159.226 128.137 158.557 128.137H156.791V124.873Z" fill="#251714"/>
<path d="M204.177 129.738L202.316 123.107H200.571L198.649 129.69L196.811 123.107H194.856L197.521 132.471H199.546L201.393 126.127L203.189 132.471H205.214L207.879 123.107H206.076L204.177 129.738Z" fill="#251714"/>
<path d="M221.883 127.229C221.704 127.229 221.562 127.176 221.455 127.069C221.348 126.962 221.294 126.806 221.294 126.6V124.179C221.294 123.403 221.082 122.81 220.659 122.4C220.235 121.99 219.604 121.785 218.766 121.785H217.99V123.417H218.231C218.552 123.417 218.794 123.502 218.96 123.671C219.125 123.84 219.207 124.085 219.207 124.407V126.547C219.207 126.939 219.263 127.247 219.374 127.47C219.486 127.693 219.653 127.854 219.876 127.952C219.95 127.985 220.033 128.014 220.123 128.041C220.033 128.068 219.95 128.098 219.876 128.132C219.653 128.235 219.486 128.398 219.374 128.62C219.263 128.844 219.207 129.151 219.207 129.544V131.684C219.207 132.005 219.125 132.25 218.96 132.42C218.794 132.589 218.552 132.674 218.231 132.674H217.99V134.306H218.766C219.604 134.306 220.235 134.099 220.659 133.684C221.082 133.269 221.294 132.678 221.294 131.911V129.49C221.294 129.276 221.348 129.118 221.455 129.015C221.562 128.913 221.704 128.861 221.883 128.861H222.324V127.229H221.883Z" fill="#251714"/>
<path d="M182.517 124.325C182.057 123.888 181.518 123.549 180.898 123.308C180.278 123.067 179.598 122.947 178.858 122.947C178.127 122.947 177.449 123.067 176.825 123.308C176.2 123.549 175.656 123.888 175.193 124.325C174.729 124.762 174.37 125.274 174.116 125.863C173.862 126.452 173.734 127.094 173.734 127.789C173.734 128.485 173.862 129.127 174.116 129.716C174.37 130.304 174.726 130.817 175.186 131.254C175.645 131.691 176.189 132.03 176.818 132.271C177.447 132.512 178.131 132.632 178.871 132.632C179.603 132.632 180.278 132.512 180.898 132.271C181.518 132.03 182.057 131.693 182.517 131.261C182.976 130.828 183.335 130.316 183.594 129.722C183.852 129.129 183.982 128.485 183.982 127.789C183.982 127.085 183.852 126.441 183.594 125.856C183.335 125.272 182.976 124.762 182.517 124.325ZM181.567 129.007C181.42 129.372 181.212 129.689 180.945 129.956C180.677 130.224 180.367 130.429 180.015 130.572C179.663 130.714 179.277 130.786 178.858 130.786C178.439 130.786 178.051 130.715 177.694 130.572C177.338 130.429 177.027 130.224 176.764 129.956C176.501 129.689 176.296 129.37 176.149 129C176.002 128.63 175.928 128.226 175.928 127.789C175.928 127.343 176.002 126.938 176.149 126.572C176.296 126.206 176.504 125.89 176.771 125.622C177.039 125.355 177.349 125.15 177.701 125.007C178.053 124.864 178.439 124.793 178.858 124.793C179.277 124.793 179.665 124.864 180.022 125.007C180.378 125.15 180.688 125.355 180.952 125.622C181.215 125.89 181.42 126.206 181.567 126.572C181.714 126.938 181.788 127.343 181.788 127.789C181.788 128.235 181.714 128.641 181.567 129.007V129.007Z" fill="#251714"/>
<path d="M182.547 119.708V119H181.838C180.327 119 179.102 120.225 179.102 121.736V122.444H179.811C181.322 122.444 182.546 121.219 182.546 119.708H182.547Z" fill="#00962B"/>
<path d="M178.16 122.444H178.705V121.899C178.705 120.737 177.763 119.795 176.601 119.795H176.056V120.34C176.056 121.502 176.998 122.444 178.16 122.444Z" fill="#00962B"/>
<path d="M122.385 124.456L115.493 131.349" stroke="black"/>
<path d="M115.493 124.456L122.385 131.349" stroke="black"/>
</svg>
